<?xml version="1.0" encoding="iso-8859-1"?>
<!-- Generator: Adobe Illustrator 19.0.0, SVG Export Plug-In . SVG Version: 6.00 Build 0)  -->
<svg version="1.1" id="Layer_1" xmlns="http://www.w3.org/2000/svg" xmlns:xlink="http://www.w3.org/1999/xlink" x="0px" y="0px"
	 viewBox="0 0 496 496" style="enable-background:new 0 0 496 496;" xml:space="preserve">
<g>
	<g>
		<g>
			<path d="M424,303.736h-2.912c8.704-7.04,15.768-16.056,20.456-26.576C459.808,269.352,472,251.384,472,231.016V224
				c0-19.616-14.192-35.984-32.848-39.36C435.816,170.528,423.112,160,408,160h-50.048c-16.296,0-31.608,6.344-43.528,18.264
				C302.536,190.144,296,205.904,296,222.648V240h8v8c0,22.448,10.336,42.52,26.488,55.736H328c-39.704,0-72,28.712-72,64V384h-16
				v-16.264c0-35.288-32.296-64-72-64h-2.488c5.512-4.504,10.336-9.808,14.312-15.736H200c13.232,0,24-10.768,24-24v-24v-24
				c0-8.824-7.176-16-16-16h-18.36c-6.904-23.104-28.328-40-53.64-40h-32c-25.312,0-46.736,16.896-53.64,40H32
				c-8.824,0-16,7.176-16,16v24c0,8.824,7.176,16,16,16h16.472c2.136,19.184,11.808,36.112,26.016,47.736H72
				c-39.704,0-72,28.712-72,64V384v8v40h32v64h16v-64h16v16h16v-16h16v16h16v-16h16v16h16v-16h16v16h16v-16h16v16h16v-16h16v16h16
				v-16h16v16h16v-16h16v16h16v-16h16v16h16v-16h16v16h16v-16h16v16h16v-16h16v16h16v-16h16v64h16v-64h32v-40v-8v-16.264
				C496,332.448,463.704,303.736,424,303.736z M192,216h16v24h-16V216z M191.528,256H208v8c0,4.416-3.584,8-8,8h-12.2
				C189.616,266.896,190.912,261.56,191.528,256z M48,240H32v-24h16V240z M312,222.648c0-12.472,4.872-24.208,14.136-33.472
				C334.632,180.68,345.928,176,357.952,176H408c8.824,0,16,7.176,16,16v8h8c13.232,0,24,10.768,24,24v7.016
				c0,12.04-6.232,22.856-16,28.992V240c0-17.648-14.352-32-32-32h-3.312l-2.344,2.344c-8.68,8.68-20.696,13.656-32.968,13.656H312
				V222.648z M320,248v-8h49.376c15.208,0,30.144-5.696,41.504-15.744C418.336,225.624,424,232.168,424,240v32h-48v16h38.96
				c-9.472,9.208-22.048,14.888-35.56,15.736h-8.648C342.336,301.08,320,277.104,320,248z M412.288,319.736l-8.056,20.144
				l-7.68-5.12l15.024-15.024H412.288z M388.96,319.736L380.688,328h-9.376l-8.264-8.264h7.712c1.736,0.128,3.472,0.264,5.24,0.264
				c1.152,0,2.264-0.208,3.408-0.264H388.96z M355.448,334.76l-7.68,5.12l-8.056-20.144h0.712L355.448,334.76z M64,216
				c0-22.056,17.944-40,40-40h32c22.056,0,40,17.944,40,40v1.128c-4.344-3.664-8.248-7.92-11.536-12.856
				c-5.12-7.688-13.68-12.272-22.92-12.272H98.448c-9.232,0-17.8,4.584-23.184,12.68c-3.128,4.696-6.968,8.856-11.264,12.464V216z
				 M64,248v-11.432c9.784-5.768,18.304-13.6,24.864-23.44C91,209.92,94.584,208,98.456,208h43.096c3.864,0,7.456,1.92,9.872,5.552
				c6.312,9.464,14.8,17.256,24.576,23.016V248c0,8.592-2.008,16.712-5.48,24H128v16h31.112
				c-8.928,8.728-20.744,14.504-33.872,15.736h-10.488C86.336,301.08,64,277.104,64,248z M156.288,319.736l-8.056,20.144l-7.68-5.12
				l15.024-15.024H156.288z M132.952,319.736L124.688,328h-9.376l-8.264-8.264h7.712c1.736,0.128,3.472,0.264,5.24,0.264
				s3.504-0.136,5.24-0.264H132.952z M99.448,334.76l-7.68,5.12l-8.056-20.144h0.712L99.448,334.76z M16,367.736
				c0-27.664,25.312-45.48,50.576-47.744l17.656,44.136L114.424,344h11.16l30.184,20.128l17.656-44.136
				C198.688,322.248,224,340.064,224,367.736V384h-32v-24h-16v24H64v-24H48v24H16V367.736z M480,416H16v-16h464V416z M480,384h-32
				v-24h-16v24H320v-24h-16v24h-32v-16.264c0-27.664,25.312-45.48,50.576-47.744l17.656,44.136L370.424,344h11.16l30.184,20.128
				l17.656-44.136C454.688,322.248,480,340.064,480,367.736V384z"/>
			<path d="M192,112v8c0,13.232,10.768,24,24,24h31.704L296,185.392V144h40c13.232,0,24-10.768,24-24V56c0-13.232-10.768-24-24-24
				h-72v-8c0-13.232-10.768-24-24-24H120c-13.232,0-24,10.768-24,24v128.648L146.808,112H192z M264,88V48h72c4.416,0,8,3.584,8,8v64
				c0,4.416-3.584,8-8,8h-56v22.608L253.624,128H216c-4.416,0-8-3.584-8-8v-8h32C253.232,112,264,101.232,264,88z M112,119.352V24
				c0-4.416,3.584-8,8-8h120c4.416,0,8,3.584,8,8v64c0,4.416-3.584,8-8,8h-98.808L112,119.352z"/>
		</g>
	</g>
</g>
<g>
</g>
<g>
</g>
<g>
</g>
<g>
</g>
<g>
</g>
<g>
</g>
<g>
</g>
<g>
</g>
<g>
</g>
<g>
</g>
<g>
</g>
<g>
</g>
<g>
</g>
<g>
</g>
<g>
</g>
</svg>
